<svg width="1025" height="468" viewBox="0 0 1025 468" fill="none" xmlns="http://www.w3.org/2000/svg">
<path fill-rule="evenodd" clip-rule="evenodd" d="M132.005 84.7135C189.958 53.4493 251.31 31.7017 329.314 15.0543C347.601 11.1131 453.986 0.586009 470.878 0.961448C487.227 1.40464 497.729 8.10123 497.626 18.3318C497.522 24.1438 496.71 24.2457 434.881 31.1401C400.552 34.8759 359.052 40.8883 342.67 44.5915C228.33 71.0245 133.769 116.527 62.3879 179.57C36.5205 202.408 23.3316 218.415 24.2147 225.485C25.0978 232.555 15.8527 233.709 7.89994 227.523C0.253034 221.574 -1.85298 206.925 2.53272 193.398C11.3721 166.887 68.1032 119.206 132.005 84.7135ZM643.334 39.6214C651.458 29.4936 660.941 19.1959 664.239 16.8509C677.632 6.89333 699.418 11.0759 695.066 22.6655C693.776 25.5883 688.606 32.8616 683.033 39.081L673.412 50.5006L690.541 48.3606C700.059 47.1717 708.591 46.9347 709.783 47.6144C712.84 49.9939 706.346 64.3368 700.127 69.8084C696.898 72.697 684.185 77.0465 672.083 79.6624L650.025 84.3511L634.526 106.17C588.155 170.506 537.812 278.144 538.181 312.064C538.285 323.927 538.659 324.709 543.213 321.377C556.433 312.27 593.793 262.038 606.437 237.261C632.748 184.82 665.992 152.499 702.259 144.379C719.221 140.88 719.763 140.812 727.921 148.63C738.797 158.318 739.304 164.606 731.791 186.255C719.925 219.496 669.587 271.902 646.475 274.79C641.305 275.435 637.027 274.313 635.904 271.967C632.674 266.018 629.853 267.752 627.13 276.928C621.454 297.797 629.134 312.855 644.363 310.952C655.51 309.56 677.538 295.763 693.82 280.197C727.059 247.876 776.728 170.149 774.656 153.562C772.479 136.16 790.5 103.533 806.812 94.8669C815.344 90.2117 828.5 93.8152 834.511 102.177C837.234 106.256 835.974 109.451 826.831 122.467C820.474 131.27 813.537 142.078 811.395 147.04L807.25 155.843L831.075 152.038C854.324 148.029 855.176 148.2 859.218 154.046C862.955 159.654 862.65 161.625 856.53 172.332C840.046 201.729 818.357 246.967 812.134 265.695C801.46 297.404 805.842 297.134 834.871 264.234C858.125 238.133 869.139 220.188 878.351 194.461C882.433 182.904 891.541 162.989 898.272 150.549C908.606 131.584 913.161 126.044 922.949 120.403C932.742 114.762 936.513 114.014 942.254 115.782L949.157 117.958L934.81 146.812C920.054 176.822 887.893 264.239 888.878 272.125C889.188 274.572 890.34 277.189 891.29 278.174C895.268 281.269 909.138 268.491 925.524 247.112C950.235 215.029 961.249 194.874 976.276 153.784C989.058 119.049 990.18 116.976 1000.61 112.082C1008.91 107.732 1012.99 107.223 1018.73 108.991C1019.06 109.094 1019.38 109.189 1019.69 109.28C1021.08 109.692 1022.24 110.033 1023.04 110.763C1026.92 114.295 1022.54 126.926 996.916 200.742C995.399 205.106 993.809 209.685 992.14 214.49C966.577 288.378 962.495 302.143 966.71 302.722C982.278 305.749 988.122 308.332 996.517 315.844C1006.1 324.035 1010.28 337.597 1005.01 341.846C1003.52 343.137 994.444 341.232 984.656 338.037C974.829 334.569 963.14 331.612 958.413 331.373C950.324 330.727 949.644 331.915 937.646 359.65C914.392 412.262 883.969 447.268 847.909 461.437C832.409 467.793 829.416 468.167 818.914 465.887C801.888 462.215 794.104 452.97 791.726 433.937C789.146 413.27 795.674 394.782 814.502 370.889C836.126 342.782 870.252 321.95 916.376 308.732C924.903 306.287 926.843 304.111 931.363 291.672C936.7 276.922 935.14 273.25 928.104 283.242C921.984 291.74 901.723 304.212 888.878 307.472C873.309 311.075 862.364 303.051 860.326 286.737L858.937 275.59L843.231 291.358C824.059 310.322 807.54 319.566 794.453 318.715C763.016 316.843 764.346 278.843 798.476 211.617C805.753 196.902 811.666 184.565 811.563 183.749C811.464 182.933 807.043 182.932 801.878 183.577C793.178 184.664 791.204 186.567 781.549 204.342C766.763 231.872 751.667 268 743.204 297.503C737.561 316.433 734.297 323.469 730.284 324.521C723.352 326.493 717.709 318.913 715.671 304.806L714.381 294.475L702.486 305.349C674.51 331.212 638.957 345.042 617.648 338.04C607.549 334.605 593.788 319.478 592.665 310.507C592.227 306.971 588.928 309.317 580.293 319.784C566.118 336.742 546.064 350.846 533.558 352.408C506.365 355.805 501.033 315.325 520.954 255.948C534.011 216.761 575.384 136.755 600.809 101.545L608.081 91.2471L581.947 96.4449L555.537 101.677L554.685 94.8792C554.207 91.0723 556.113 84.2064 559.141 79.6865C564.271 72.1416 566.62 71.0201 596.496 64.8031L628.548 58.3138L643.334 39.6214ZM646.239 255.212C675.268 235.569 710.28 190.877 708.409 175.922C706.848 163.413 685.091 177.178 664.934 203.721C652.802 219.321 630.434 259.118 631.01 263.741C631.143 264.828 638.115 260.921 646.239 255.212ZM876.869 405.904C886.524 392.546 904.303 360.225 912.462 341.531C916.543 332.186 876.707 349.311 856.924 365.591C821.607 394.581 806.068 442.638 833.261 439.241C844.679 437.815 864.836 422.319 876.869 405.904ZM257.015 81.8017C245.628 90.1275 204.733 156.266 172.032 219.448C124.881 310.669 95.5073 398.29 99.9908 434.182C101.349 445.058 111.035 458.485 120.042 462.053C128.742 465.386 133.535 459.539 132.041 447.577C130.173 432.62 139.965 389.423 153.496 354.041C180.999 280.186 243.99 161.027 285.223 104.236C292.769 93.9048 298.175 84.1163 297.189 82.8588C294.537 79.3237 277.171 75.1416 270.1 76.0249C266.6 76.7383 260.822 79.1169 257.015 81.8017ZM450.06 185.824C457.269 166.145 464.678 154.725 478.615 142.49C494.317 128.93 504.007 126.892 514.203 135.56C524.976 144.432 524.976 151.06 514.405 157.075C503.322 163.43 486.428 182.937 482.316 194.221C479.391 201.766 480.207 210.502 486.966 253.566C493.49 294.726 494.745 306.995 492.638 318.858C486.787 353.832 446.544 378.743 415.002 367.217C404.33 363.579 396.989 357.869 388.425 346.789C385.094 342.232 384.313 342.607 375.848 352.225C348.723 382.677 314.939 386.344 311.543 359.153L310.32 349.365L299.306 360.681C271.739 389.807 246.383 394.631 228.642 374.202C216.068 359.756 216.003 330.493 228.276 293.887C238.34 263.911 268.253 224.826 295.071 207.392C320.053 190.74 337.491 188.838 354.824 201.586C363.625 207.943 370.388 224.495 367.497 232.312C364.133 240.742 356.926 240.536 345.237 230.951C332.932 220.889 323.857 221.194 307.508 231.796C280.179 249.572 250.844 304.323 251.555 336.544C251.961 353.063 255.121 356.259 267.766 351.366C276.977 347.73 300.431 318.84 320.658 286.214C330.039 270.683 340.17 256.713 342.685 254.742C348.769 250.392 369.433 247.811 369.875 251.346C370.045 252.705 367.156 260.523 363.722 268.408C356.108 284.824 337.035 342.16 337.578 346.51C338.495 353.852 347.706 345.798 367.933 319.799C380.068 304.2 394.717 284.419 399.987 275.752C411.783 257.434 419.567 253.423 433.197 258.626C444.819 263.248 448.898 269.367 442.847 273.99C433.261 281.262 420.174 298.084 417.183 307.295C407.562 336.389 431.691 354.915 451.68 333.639C463.339 320.862 463.951 310.291 455.764 266.852C445.539 211.519 444.756 200.846 450.06 185.824Z" fill="url(#paint0_linear_323_355)"/>
<defs>
<linearGradient id="paint0_linear_323_355" x1="496.73" y1="-65.1956" x2="599.155" y2="713.203" gradientUnits="userSpaceOnUse">
<stop stop-color="#CEBB14"/>
<stop offset="1" stop-color="#01A439"/>
</linearGradient>
</defs>
</svg>
