<?xml version="1.0" standalone="no"?>
<!DOCTYPE svg PUBLIC "-//W3C//DTD SVG 20010904//EN"
 "http://www.w3.org/TR/2001/REC-SVG-20010904/DTD/svg10.dtd">
<svg version="1.0" xmlns="http://www.w3.org/2000/svg"
 width="2050.000000pt" height="2050.000000pt" viewBox="0 0 2050.000000 2050.000000"
 preserveAspectRatio="xMidYMid meet">
<metadata>
Created by potrace 1.14, written by Peter Selinger 2001-2017
</metadata>
<g transform="translate(0.000000,2050.000000) scale(0.100000,-0.100000)"
fill="#000000" stroke="none">
<path d="M9110 14902 c0 -4 -17 -8 -37 -8 -51 -1 -200 -13 -378 -29 -44 -4
-98 -9 -120 -10 -34 -2 -102 -8 -225 -20 -102 -10 -156 -17 -162 -21 -5 -3 -8
-1 -8 5 0 7 -8 7 -23 2 -13 -5 -60 -12 -106 -15 -45 -4 -97 -8 -114 -11 -18
-2 -57 -7 -87 -10 -30 -3 -75 -8 -100 -10 -25 -3 -67 -7 -95 -9 -49 -4 -114
-12 -185 -21 -19 -3 -60 -7 -90 -10 -30 -3 -71 -7 -90 -10 -19 -2 -60 -7 -90
-10 -30 -3 -66 -8 -80 -10 -14 -2 -54 -7 -90 -10 -36 -4 -72 -8 -80 -10 -22
-6 -120 -18 -157 -19 -18 -1 -33 -5 -33 -9 0 -5 -4 -6 -8 -3 -7 4 -34 0 -177
-28 -27 -5 -67 -14 -165 -36 -120 -27 -188 -42 -210 -46 -14 -3 -158 -39 -320
-80 -162 -42 -302 -77 -310 -78 -8 -1 -26 -7 -40 -13 -14 -6 -43 -14 -65 -18
-45 -9 -53 -11 -60 -15 -3 -1 -8 -3 -12 -4 -5 -1 -35 -10 -68 -20 -33 -10 -64
-19 -70 -20 -21 -5 -167 -49 -335 -103 -96 -30 -179 -56 -185 -58 -5 -1 -17
-5 -25 -8 -24 -10 -224 -78 -235 -81 -5 -1 -14 -4 -20 -7 -9 -6 -110 -41 -127
-45 -5 -1 -10 -3 -13 -4 -3 -1 -8 -3 -12 -4 -5 -2 -19 -7 -33 -13 -14 -6 -52
-21 -85 -33 -33 -12 -69 -26 -80 -31 -11 -4 -78 -31 -150 -59 -71 -28 -149
-60 -172 -71 -24 -10 -45 -19 -47 -19 -2 0 -21 -8 -42 -17 -22 -9 -41 -17 -44
-18 -5 -2 -45 -20 -147 -66 -24 -10 -64 -29 -90 -40 -27 -12 -82 -38 -123 -57
-41 -20 -77 -37 -80 -37 -8 -1 -374 -185 -500 -252 -63 -34 -131 -69 -150 -79
-19 -11 -37 -21 -40 -24 -3 -3 -25 -16 -50 -29 -25 -13 -82 -46 -126 -72 -45
-27 -87 -49 -93 -49 -6 0 -11 -4 -11 -10 0 -5 -4 -10 -9 -10 -6 0 -52 -27
-103 -60 -51 -33 -101 -63 -110 -66 -10 -4 -18 -11 -18 -16 0 -5 -5 -6 -10 -3
-6 3 -10 1 -10 -4 0 -6 -6 -11 -14 -11 -8 0 -16 -3 -18 -7 -4 -11 -116 -83
-128 -83 -5 0 -10 -4 -10 -10 0 -5 -6 -10 -14 -10 -8 0 -16 -3 -18 -7 -5 -12
-125 -93 -136 -93 -6 0 -12 -3 -14 -8 -1 -4 -34 -30 -73 -57 -38 -27 -76 -55
-83 -62 -7 -7 -20 -13 -28 -13 -8 0 -14 -3 -14 -8 0 -4 -37 -34 -82 -67 -46
-33 -90 -65 -98 -72 -8 -6 -62 -49 -120 -94 -58 -44 -107 -84 -110 -88 -3 -3
-36 -32 -75 -63 -38 -31 -83 -69 -100 -83 -16 -15 -57 -50 -89 -78 -132 -115
-388 -380 -467 -482 -13 -16 -28 -35 -34 -42 -23 -28 -33 -41 -73 -103 -23
-36 -46 -70 -50 -76 -28 -33 -85 -176 -108 -269 -28 -116 -17 -357 19 -402 5
-7 7 -13 4 -13 -10 0 27 -74 57 -113 81 -106 241 -166 325 -123 40 21 53 48
57 119 2 32 9 66 16 74 7 9 12 19 12 22 -2 6 25 57 49 96 45 73 187 235 332
380 177 177 259 254 434 403 30 26 67 58 82 72 15 14 37 32 49 40 12 8 32 24
44 35 39 35 69 59 136 110 36 28 71 56 78 62 24 23 236 180 352 261 63 44 122
86 130 94 9 7 28 19 43 27 15 8 27 18 27 23 0 4 4 8 10 8 5 0 49 26 97 58 151
100 232 152 238 152 3 0 11 5 18 10 19 16 78 53 120 75 20 11 37 23 37 27 0 5
4 8 10 8 5 0 44 20 86 45 41 25 78 45 81 45 3 0 17 8 31 18 15 11 59 36 97 57
39 21 111 60 160 87 109 59 498 254 575 288 30 13 63 31 73 39 9 8 17 11 17 8
0 -3 44 15 97 40 85 40 137 63 153 68 8 3 46 19 148 63 50 22 92 37 92 34 0
-4 4 -2 8 3 4 6 41 24 82 40 41 15 91 35 110 44 19 8 38 16 43 17 4 1 8 2 10
4 1 1 9 3 17 5 8 2 44 15 80 30 36 14 142 53 235 87 94 33 184 66 200 73 17 8
42 16 55 19 14 3 79 24 145 46 175 60 582 185 665 204 8 2 58 16 110 31 52 14
100 27 105 29 6 1 19 5 30 9 11 3 31 8 45 11 14 3 43 10 65 16 22 6 47 12 55
14 8 2 35 9 60 16 25 7 56 14 70 17 14 2 48 10 75 18 28 8 61 16 75 19 14 2
43 9 65 15 22 6 58 13 80 17 22 3 44 8 48 11 4 2 24 7 45 9 20 2 51 7 67 11
40 9 34 8 86 16 25 4 57 10 70 12 38 7 210 34 254 40 22 3 52 8 67 11 41 8 88
14 140 18 26 2 50 6 55 9 4 3 35 8 67 11 32 4 62 9 67 11 4 3 38 7 76 10 37 2
68 4 68 5 0 3 44 10 87 14 24 2 43 5 43 6 0 1 16 3 35 5 19 2 55 5 80 8 120
15 147 18 170 22 14 3 52 7 85 10 33 3 78 9 100 12 39 6 68 9 165 17 25 3 45
5 45 6 0 1 16 3 35 5 19 2 60 6 90 9 30 4 75 9 100 11 25 3 63 7 85 10 22 3
63 7 90 10 28 3 64 7 80 9 17 2 56 7 88 11 32 3 66 8 75 10 9 1 46 6 82 10 36
4 74 9 85 11 11 3 36 7 55 9 19 3 42 6 50 8 8 2 38 7 65 12 83 13 145 45 151
78 1 4 3 10 4 15 5 18 -2 81 -16 122 -33 101 -166 197 -314 226 -14 3 -36 8
-50 11 -37 9 -400 11 -406 2 -3 -5 -16 -4 -29 1 -14 5 -25 6 -25 2z"/>
<path d="M13565 14702 c-1 -2 -20 -5 -41 -8 -59 -7 -177 -54 -222 -88 -21 -15
-251 -246 -281 -282 -53 -63 -168 -202 -196 -238 -93 -119 -240 -302 -251
-314 -8 -7 -27 -15 -43 -17 -17 -2 -38 -6 -48 -9 -10 -3 -34 -8 -53 -11 -19
-3 -89 -17 -155 -30 -66 -14 -130 -27 -143 -30 -12 -2 -30 -6 -40 -9 -9 -3
-33 -7 -52 -10 -19 -3 -44 -8 -55 -10 -76 -17 -223 -48 -240 -51 -11 -1 -21
-4 -22 -5 -2 -1 -12 -4 -23 -5 -11 -1 -21 -3 -22 -4 -2 -2 -14 -5 -27 -7 -14
-2 -52 -12 -85 -20 -34 -9 -68 -18 -76 -19 -8 -2 -16 -4 -17 -5 -2 -2 -6 -3
-10 -4 -48 -12 -99 -32 -105 -41 -4 -5 -8 -7 -8 -2 0 11 -81 -42 -109 -72 -66
-70 -154 -253 -135 -282 3 -5 1 -9 -4 -9 -12 0 -3 -203 10 -215 5 -6 65 3 138
20 14 3 39 8 55 10 17 3 43 7 58 11 16 3 38 7 50 9 12 2 33 6 47 9 14 4 36 8
50 11 14 2 81 16 150 31 69 14 136 27 150 29 14 2 25 4 25 5 0 1 11 3 25 6 14
2 36 6 50 8 14 3 41 8 60 11 19 3 53 11 75 17 53 14 105 18 105 8 0 -5 -6 -15
-12 -22 -7 -7 -26 -33 -43 -58 -16 -25 -32 -47 -35 -50 -10 -9 -150 -211 -150
-216 0 -3 -5 -10 -11 -17 -16 -18 -119 -178 -136 -211 -9 -17 -22 -36 -29 -44
-8 -7 -14 -19 -14 -27 0 -7 -4 -15 -8 -17 -10 -4 -72 -105 -72 -118 0 -6 -4
-10 -8 -10 -5 0 -14 -16 -22 -35 -8 -19 -17 -35 -20 -35 -4 0 -17 -22 -30 -50
-13 -27 -26 -50 -29 -50 -3 0 -12 -15 -20 -32 -8 -18 -17 -35 -20 -38 -3 -3
-14 -21 -25 -40 -58 -109 -102 -189 -123 -222 -12 -21 -23 -44 -23 -52 0 -8
-4 -16 -8 -18 -8 -3 -95 -164 -181 -333 -20 -38 -40 -73 -44 -76 -5 -3 -9 -10
-9 -15 -2 -15 -162 -339 -170 -342 -5 -2 -8 -12 -8 -23 0 -10 -4 -19 -10 -19
-5 0 -9 -3 -8 -7 2 -9 -7 -30 -82 -188 -28 -60 -58 -126 -67 -145 -8 -19 -19
-42 -24 -50 -5 -8 -12 -22 -15 -30 -19 -51 -39 -96 -44 -100 -3 -3 -6 -11 -8
-18 -1 -7 -12 -34 -23 -60 -12 -26 -25 -56 -29 -67 -4 -11 -15 -36 -23 -55
-38 -87 -67 -165 -67 -177 0 -7 -4 -13 -10 -13 -5 0 -10 -11 -10 -24 0 -14 -4
-28 -10 -31 -5 -3 -10 -12 -10 -20 0 -8 -5 -26 -11 -42 -6 -15 -10 -29 -10
-30 0 -2 -8 -23 -19 -48 -11 -25 -20 -49 -20 -53 0 -4 -14 -50 -30 -102 -27
-87 -95 -342 -106 -393 -13 -67 -17 -84 -20 -102 -2 -11 -6 -33 -9 -50 -4 -16
-8 -41 -10 -55 -2 -14 -4 -25 -5 -25 -1 0 -3 -9 -4 -20 -2 -11 -6 -40 -9 -65
-33 -232 -37 -450 -11 -600 3 -19 8 -46 10 -60 9 -51 47 -157 74 -206 49 -90
92 -133 168 -169 174 -83 397 -22 692 189 47 33 90 65 96 71 6 5 31 26 55 45
60 48 264 252 324 325 83 100 193 207 211 203 11 -2 25 -27 38 -68 43 -132
176 -306 311 -405 22 -17 42 -33 45 -36 3 -4 30 -20 60 -36 94 -51 197 -70
350 -67 58 1 105 3 105 4 0 2 22 6 72 14 21 3 52 8 68 12 17 3 36 7 43 7 6 0
12 4 12 9 0 5 4 7 9 4 8 -5 45 4 91 22 8 3 17 6 20 7 3 1 21 6 40 12 55 16
206 82 300 131 100 52 254 144 258 155 2 4 8 7 13 7 6 0 15 4 22 10 7 5 60 45
118 88 112 84 145 110 191 154 16 16 30 28 33 28 2 0 21 17 43 38 90 85 204
187 213 190 5 2 10 -2 10 -10 7 -86 18 -163 34 -253 41 -221 155 -357 273
-326 36 10 54 25 100 86 13 18 70 157 98 240 14 44 29 87 32 95 7 19 6 17 21
70 6 25 18 61 25 80 8 19 14 38 14 43 1 13 43 148 77 247 29 84 46 134 50 150
1 3 5 13 8 23 4 9 10 25 14 35 3 9 7 20 8 25 2 4 4 9 5 12 1 3 3 8 5 13 1 4 7
21 14 37 20 47 52 134 52 140 0 2 13 34 30 70 16 35 29 71 29 80 0 8 5 15 11
15 5 0 8 4 5 8 -3 5 1 19 7 33 7 13 44 96 82 184 38 88 74 163 80 167 5 4 7 8
2 8 -4 0 13 41 38 90 25 50 42 90 38 90 -5 0 -3 4 2 8 6 4 50 87 99 185 49 98
93 180 98 183 5 3 6 10 3 15 -4 5 -1 9 4 9 6 0 11 4 11 10 0 21 130 227 172
271 72 78 146 101 323 103 65 1 70 0 68 -20 -3 -24 -33 -93 -144 -321 -44 -90
-79 -167 -79 -173 0 -5 -4 -10 -10 -10 -5 0 -10 -5 -10 -12 0 -15 -83 -182
-93 -186 -4 -2 -5 -7 -2 -12 3 -5 0 -14 -7 -22 -7 -7 -14 -20 -16 -28 -2 -8
-9 -18 -15 -22 -7 -4 -8 -8 -4 -8 4 0 2 -10 -5 -22 -7 -13 -13 -25 -14 -28 0
-3 -12 -30 -26 -60 -71 -153 -86 -189 -80 -194 3 -3 0 -6 -6 -6 -7 0 -12 -6
-12 -14 0 -7 -9 -34 -20 -60 -12 -25 -21 -48 -20 -51 0 -3 -7 -19 -15 -35 -9
-17 -13 -30 -9 -30 4 0 2 -6 -3 -12 -15 -20 -88 -239 -122 -368 -34 -128 -57
-245 -67 -335 -3 -33 -8 -63 -11 -67 -2 -5 1 -8 8 -8 7 0 8 -4 2 -12 -5 -7 -8
-38 -6 -68 8 -197 46 -306 138 -398 43 -43 124 -92 151 -92 7 0 14 -5 14 -12
0 -6 2 -9 5 -6 3 3 33 0 68 -7 223 -42 495 63 795 308 118 95 136 113 360 335
107 106 198 194 204 195 5 1 12 -20 14 -48 2 -27 7 -63 10 -80 2 -16 7 -55 10
-85 4 -30 10 -63 15 -72 5 -9 9 -25 9 -34 0 -28 67 -156 102 -193 43 -46 123
-95 182 -111 77 -21 220 -17 286 8 14 5 29 10 33 10 42 1 313 134 414 203 23
16 46 29 52 29 6 0 11 4 11 8 0 4 13 15 29 25 65 38 184 150 241 226 53 70 97
102 106 76 4 -8 3 -37 -1 -63 -7 -54 -86 -295 -97 -300 -5 -2 -8 -9 -8 -16 0
-19 -48 -107 -73 -135 -40 -43 -92 -68 -217 -106 -69 -20 -134 -40 -145 -45
-11 -5 -45 -16 -75 -26 -80 -25 -277 -98 -388 -145 -99 -41 -423 -199 -432
-210 -3 -3 -31 -20 -62 -37 -48 -26 -130 -77 -202 -124 -59 -40 -261 -194
-292 -224 -20 -18 -39 -34 -42 -34 -5 0 -230 -227 -272 -276 -126 -143 -326
-436 -391 -569 -7 -16 -18 -33 -24 -37 -5 -4 -6 -8 -2 -8 5 0 -1 -17 -12 -37
-20 -38 -67 -157 -76 -197 -37 -151 -46 -213 -47 -331 -2 -141 3 -202 28 -310
20 -91 22 -100 24 -100 1 0 3 -7 5 -16 5 -29 66 -144 98 -185 50 -65 152 -139
240 -174 44 -17 88 -32 98 -33 11 -1 19 -5 19 -10 0 -4 4 -6 8 -3 4 2 39 -2
77 -11 108 -23 234 -15 343 22 7 3 13 4 15 3 1 0 20 8 42 19 22 12 42 21 45
21 5 1 20 6 110 42 125 49 365 180 445 243 6 4 46 35 90 67 141 107 327 282
435 410 25 29 54 63 65 76 61 69 166 210 245 329 41 61 76 112 79 115 4 3 12
16 19 30 7 14 21 39 32 55 11 17 24 39 30 50 6 11 18 34 28 50 67 110 222 414
287 562 14 32 30 66 35 75 6 10 10 25 10 33 0 8 4 15 8 15 4 0 8 10 9 21 1 12
9 29 17 38 9 10 16 22 16 28 0 6 20 53 44 104 23 52 44 99 45 104 1 6 8 17 15
25 6 8 21 32 31 54 23 43 90 105 117 107 74 5 171 -6 266 -30 23 -6 61 -16 85
-21 23 -6 53 -14 67 -19 14 -5 79 -26 145 -46 66 -20 126 -38 133 -40 7 -3 14
-5 17 -5 3 -1 34 -10 70 -20 36 -10 68 -19 70 -19 3 -1 6 -1 8 -2 25 -8 103
-14 143 -11 29 3 62 74 59 127 -2 50 -13 101 -30 140 -7 17 -16 37 -19 45 -3
8 -15 29 -26 45 -11 17 -23 37 -27 45 -8 18 -57 72 -97 108 -16 15 -37 34 -45
42 -25 23 -118 90 -126 90 -4 0 -19 8 -33 18 -23 16 -52 28 -157 68 -23 8 -15
6 -135 33 -52 12 -105 26 -116 31 -60 24 -29 160 178 785 55 165 101 305 102
310 2 6 8 22 14 36 6 15 16 46 22 70 7 24 15 49 18 54 4 6 7 15 8 20 2 6 21
64 44 130 23 66 43 125 45 130 1 6 6 21 12 35 6 14 16 43 23 65 7 22 16 49 20
60 8 21 16 45 19 57 1 4 9 27 17 50 38 103 137 386 146 418 5 19 15 41 20 48
6 6 7 12 3 12 -4 0 -2 7 5 15 7 8 10 15 6 15 -3 0 1 17 10 38 8 20 17 44 19
52 2 8 15 45 29 83 14 37 25 69 26 72 1 6 -2 -3 61 180 90 261 140 410 144
425 2 8 19 62 38 120 49 149 78 245 80 269 1 12 4 21 7 21 8 0 33 143 35 190
1 65 -36 96 -145 119 -33 7 -127 6 -169 -3 -61 -12 -257 -115 -303 -159 -59
-56 -93 -112 -163 -272 -26 -58 -222 -574 -228 -600 -5 -19 -60 -160 -70 -180
-6 -11 -12 -29 -14 -39 -2 -11 -7 -24 -12 -30 -5 -6 -12 -22 -16 -36 -7 -24
-21 -56 -75 -175 -13 -27 -24 -54 -25 -60 -4 -16 -126 -261 -175 -350 -61
-113 -62 -115 -93 -162 -15 -24 -27 -45 -27 -48 0 -3 -44 -71 -97 -151 -54
-80 -102 -153 -108 -162 -5 -10 -12 -19 -16 -22 -3 -3 -21 -27 -40 -55 -18
-27 -44 -61 -56 -75 -13 -13 -23 -30 -23 -37 0 -6 -3 -13 -8 -15 -4 -1 -33
-37 -64 -78 -121 -159 -212 -271 -260 -322 -16 -16 -28 -31 -28 -33 0 -2 -46
-51 -102 -108 -215 -216 -314 -270 -359 -192 -27 46 -36 98 -25 150 3 17 8 43
11 59 4 16 8 33 11 38 3 5 7 19 10 33 7 38 120 391 144 450 5 11 22 61 38 110
17 50 44 127 61 173 17 45 27 82 23 82 -4 0 -2 4 3 8 6 4 16 25 24 47 13 39
22 65 89 240 77 205 86 230 87 235 0 3 5 12 10 20 5 8 21 49 36 90 27 75 75
196 111 277 10 24 18 45 18 48 0 3 9 24 19 48 11 23 38 85 59 137 57 135 90
211 107 242 8 14 15 32 15 39 0 7 6 20 13 28 7 9 30 54 52 101 22 47 43 87 48
88 4 2 7 8 7 14 0 15 52 122 63 129 5 3 8 9 8 13 -1 3 28 65 64 138 48 98 62
134 52 140 -35 23 -214 67 -237 58 -3 -1 -22 -3 -43 -6 -57 -7 -229 -95 -322
-164 -69 -51 -103 -85 -158 -155 -63 -79 -59 -74 -87 -120 -13 -22 -28 -41
-32 -43 -4 -2 -8 -7 -8 -12 0 -4 -25 -51 -55 -105 -30 -53 -55 -101 -55 -106
0 -5 -5 -9 -12 -9 -6 0 -8 -3 -5 -7 4 -3 0 -14 -9 -24 -8 -9 -16 -24 -18 -32
-1 -8 -8 -22 -15 -31 -7 -9 -10 -16 -5 -16 5 0 4 -4 -2 -8 -11 -7 -64 -116
-63 -128 0 -4 -3 -10 -8 -13 -5 -3 -24 -40 -42 -81 -19 -41 -48 -104 -65 -140
-17 -36 -31 -67 -32 -70 -1 -7 -14 -38 -34 -85 -36 -81 -52 -122 -77 -190 -14
-38 -30 -81 -36 -95 -6 -14 -11 -27 -12 -30 -7 -29 -20 -63 -38 -100 -11 -25
-20 -48 -19 -52 1 -5 -2 -8 -6 -8 -5 0 -9 -6 -9 -14 0 -15 -151 -327 -163
-336 -3 -3 -17 -25 -31 -50 -13 -25 -27 -46 -31 -48 -5 -2 -8 -10 -8 -18 0 -8
-4 -14 -10 -14 -5 0 -10 -5 -10 -10 0 -17 -205 -305 -263 -370 -7 -8 -31 -37
-53 -65 -21 -27 -48 -59 -59 -71 -11 -12 -42 -48 -70 -80 -206 -242 -435 -480
-512 -533 -21 -14 -39 -29 -41 -33 -2 -5 -18 -8 -36 -8 -24 0 -33 5 -34 18 -5
50 0 95 18 167 11 44 23 91 26 104 3 13 9 32 15 43 5 10 7 18 3 18 -3 0 -1 7
6 15 7 8 9 15 5 15 -4 0 -2 7 5 15 7 8 10 15 7 15 -2 0 11 42 30 92 19 51 35
98 37 103 2 6 8 22 14 37 50 123 84 201 105 248 14 30 34 75 45 100 58 130 73
162 113 245 23 50 43 92 44 95 1 3 34 71 73 152 40 82 72 151 71 154 0 4 3 10
8 13 5 3 34 58 66 121 97 195 190 371 302 570 92 165 108 215 89 280 -32 106
-119 179 -209 175 -46 -3 -141 -13 -176 -20 -13 -3 -42 -7 -64 -10 -41 -5 -80
-12 -80 -15 0 -2 -23 -5 -85 -13 -57 -7 -134 -19 -155 -23 -19 -4 -56 -10
-120 -20 -16 -2 -41 -7 -55 -9 -14 -3 -41 -7 -60 -9 -19 -2 -43 -7 -54 -12
-15 -6 -17 -4 -11 15 4 12 21 53 39 89 18 37 38 82 46 100 7 17 16 32 21 32 5
0 9 5 9 11 0 15 100 183 112 187 4 2 8 8 8 13 0 10 73 118 122 180 15 20 28
41 28 46 0 5 8 18 18 29 26 28 82 113 82 125 0 5 3 9 8 9 12 0 63 116 66 154
9 86 -137 219 -274 251 -8 2 -15 4 -15 5 0 9 -151 14 -192 6 -82 -16 -162 -64
-267 -161 -55 -51 -216 -255 -216 -274 0 -5 -3 -11 -7 -13 -32 -14 -191 -356
-220 -473 -21 -85 -31 -163 -32 -254 -1 -87 -6 -156 -10 -156 -1 0 -16 -43
-35 -95 -32 -91 -95 -239 -106 -250 -3 -3 -21 -36 -40 -75 -32 -63 -106 -200
-137 -250 -7 -11 -16 -27 -20 -35 -14 -30 -157 -265 -163 -270 -4 -3 -13 -16
-20 -30 -20 -39 -184 -285 -192 -288 -5 -2 -8 -10 -8 -17 0 -7 -3 -15 -7 -17
-5 -2 -26 -30 -48 -63 -22 -33 -43 -62 -46 -65 -3 -3 -34 -45 -69 -95 -34 -49
-72 -102 -84 -116 -12 -15 -30 -39 -41 -55 -11 -15 -32 -42 -47 -60 -16 -17
-28 -34 -28 -38 0 -6 -37 -51 -72 -88 -10 -10 -15 -18 -10 -18 4 0 3 -4 -3 -8
-5 -4 -28 -29 -50 -57 -22 -27 -47 -57 -55 -66 -8 -9 -35 -40 -60 -69 -150
-175 -298 -323 -430 -430 -30 -25 -57 -47 -60 -50 -65 -65 -470 -327 -484
-313 -3 4 -6 1 -6 -5 0 -7 -4 -12 -10 -12 -5 0 -33 -11 -62 -24 -29 -14 -75
-32 -103 -41 -57 -19 -184 -35 -191 -24 -2 4 -12 6 -22 4 -9 -1 -21 1 -27 5
-5 4 -22 10 -37 14 -33 7 -138 106 -138 129 0 9 -4 17 -10 17 -5 0 -10 8 -10
18 0 10 -4 22 -9 27 -35 36 -45 269 -17 390 32 139 73 229 109 241 23 7 65
-20 76 -49 26 -68 150 -95 274 -60 29 8 58 15 65 15 6 1 12 5 12 10 0 4 3 7 8
6 15 -4 121 53 222 119 155 102 324 246 506 427 151 152 194 198 289 310 22
26 49 58 61 71 11 14 29 36 40 51 16 22 116 156 141 189 31 40 123 186 123
194 0 6 4 11 9 11 15 0 147 272 185 380 36 102 65 204 72 245 1 11 7 40 11 65
5 25 8 75 7 112 -4 117 -57 199 -227 354 -101 91 -178 100 -422 44 -49 -11
-99 -22 -110 -24 -11 -2 -32 -9 -47 -15 -16 -6 -28 -7 -28 -4 0 4 -5 2 -12 -5
-7 -7 -19 -12 -28 -12 -8 0 -28 -7 -44 -15 -15 -8 -32 -15 -36 -15 -4 0 -37
-14 -74 -30 -36 -17 -69 -30 -72 -29 -4 0 -10 -3 -13 -8 -3 -4 -31 -21 -61
-37 -30 -16 -74 -42 -98 -58 -24 -15 -47 -28 -53 -28 -5 0 -9 -4 -9 -10 0 -5
-6 -10 -12 -10 -7 0 -26 -11 -43 -25 -16 -13 -54 -42 -84 -64 -29 -22 -77 -59
-104 -83 -52 -44 -309 -299 -337 -334 -9 -10 -49 -60 -90 -110 -41 -50 -82
-101 -90 -114 -8 -12 -20 -28 -26 -34 -6 -6 -35 -47 -65 -91 -30 -44 -58 -84
-62 -90 -29 -36 -113 -175 -109 -180 3 -3 0 -5 -6 -5 -7 0 -12 -7 -12 -15 0
-8 -4 -15 -9 -15 -5 0 -11 -8 -14 -17 -3 -10 -19 -40 -36 -68 -39 -66 -57 -99
-128 -235 -83 -158 -122 -230 -142 -260 -27 -42 -40 -64 -57 -97 -9 -18 -22
-37 -30 -44 -8 -6 -14 -16 -14 -21 0 -5 -11 -24 -25 -42 -14 -18 -25 -38 -25
-44 0 -7 -4 -12 -9 -12 -5 0 -12 -8 -16 -19 -3 -10 -17 -31 -30 -47 -14 -16
-25 -34 -25 -41 0 -6 -3 -13 -7 -15 -11 -5 -65 -78 -58 -78 4 0 0 -6 -7 -13
-7 -8 -31 -40 -53 -72 -22 -33 -48 -67 -57 -77 -10 -10 -18 -21 -18 -26 0 -4
-10 -18 -23 -32 -12 -14 -31 -38 -41 -55 -11 -16 -23 -34 -28 -40 -4 -5 -52
-66 -105 -135 -53 -69 -128 -163 -167 -210 -39 -47 -80 -96 -91 -109 -59 -71
-217 -229 -265 -265 -75 -56 -97 -57 -106 -9 -10 49 -10 253 0 318 4 28 9 64
11 80 2 17 4 30 5 30 1 0 3 7 5 15 2 8 6 29 10 45 3 17 8 43 11 58 2 15 8 35
13 45 5 9 9 19 9 22 1 14 16 71 33 126 11 33 21 69 24 80 7 33 91 268 105 294
7 14 12 26 11 28 -6 7 142 377 224 557 12 28 33 75 46 105 12 30 25 57 28 60
4 3 7 10 8 15 2 13 81 186 93 205 6 8 13 22 16 30 3 8 62 128 130 265 161 325
250 492 397 750 44 77 89 156 99 175 24 43 23 43 131 220 110 181 98 162 187
299 41 64 77 121 80 126 3 6 23 37 45 69 22 32 47 69 55 82 19 30 101 146 143
204 43 59 125 175 156 223 13 20 28 37 33 37 4 0 8 4 8 10 0 13 120 176 126
172 2 -2 17 -1 32 2 15 3 42 8 61 11 19 3 37 7 40 9 3 2 24 7 46 11 22 4 49 9
60 11 34 5 64 12 220 50 83 20 156 36 163 37 6 0 12 4 12 9 0 5 4 7 8 4 9 -5
138 36 149 48 4 3 13 6 20 6 8 0 40 12 71 26 31 14 58 25 60 25 1 -1 8 3 15 9
6 6 21 18 32 28 31 26 90 103 110 142 10 19 21 37 24 40 6 5 28 54 52 115 7
17 14 51 16 76 6 68 -5 75 -118 73 -93 -1 -210 -10 -259 -19 -14 -3 -50 -7
-80 -10 -30 -3 -68 -8 -85 -10 -16 -3 -48 -7 -70 -9 -22 -3 -57 -7 -77 -11
-42 -7 -47 1 -20 31 9 10 53 62 97 114 44 52 82 97 85 100 3 3 24 27 45 55 22
27 45 56 52 63 7 7 37 51 68 97 58 86 74 137 61 189 -7 29 -74 98 -87 90 -5
-3 -9 0 -9 6 0 6 -4 9 -9 5 -5 -3 -12 -1 -15 4 -9 15 -208 36 -221 23z m552
-3211 c39 -16 51 -47 48 -121 -1 -30 -3 -56 -4 -57 0 -2 -1 -5 -1 -8 -1 -9
-28 -80 -49 -128 -11 -26 -21 -51 -21 -55 -1 -4 -8 -14 -16 -23 -8 -9 -12 -18
-9 -21 3 -3 -1 -11 -10 -18 -8 -7 -15 -19 -15 -26 0 -8 -3 -14 -8 -14 -4 0
-13 -15 -21 -32 -8 -18 -17 -35 -21 -38 -3 -3 -24 -32 -45 -65 -35 -54 -142
-202 -155 -215 -3 -3 -32 -39 -65 -80 -133 -167 -359 -404 -504 -530 -35 -30
-69 -60 -75 -65 -24 -22 -150 -119 -184 -143 -20 -14 -64 -44 -97 -67 -72 -50
-185 -117 -202 -119 -7 -1 -16 -5 -19 -9 -17 -16 -25 -5 -19 26 7 31 74 187
85 197 3 3 6 10 7 15 1 6 22 48 47 94 25 46 48 92 51 102 4 11 11 19 16 19 5
0 9 5 9 11 0 6 16 38 36 72 20 34 48 82 62 107 53 94 135 225 144 231 5 3 8 8
7 10 -5 7 198 310 221 329 3 3 21 25 40 50 19 25 37 47 40 50 3 3 32 37 65 75
80 94 219 229 312 306 81 66 219 143 273 151 34 5 40 5 77 -11z m4132 -3362
c7 -22 -4 -47 -157 -359 -20 -41 -40 -76 -44 -78 -5 -2 -8 -12 -8 -22 0 -9 -7
-23 -15 -30 -8 -7 -15 -18 -15 -26 0 -7 -7 -20 -16 -28 -8 -9 -12 -16 -9 -16
4 0 -2 -15 -13 -32 -19 -33 -43 -74 -110 -198 -19 -36 -43 -76 -52 -90 -9 -14
-20 -32 -24 -40 -26 -58 -231 -383 -266 -421 -8 -9 -28 -34 -45 -55 -168 -212
-430 -430 -638 -529 -102 -49 -133 -57 -227 -59 -141 -4 -219 85 -218 249 0
68 19 188 35 225 3 8 7 17 8 20 37 139 208 446 330 595 164 200 319 350 470
455 28 19 52 37 55 40 11 12 171 110 179 110 5 0 11 3 13 8 5 13 310 170 398
205 25 10 55 23 66 29 48 23 212 67 252 67 35 1 44 -3 51 -20z"/>
<path d="M5350 13400 c-8 -4 -58 -28 -110 -53 -130 -62 -186 -119 -365 -371
-11 -15 -34 -47 -51 -70 -17 -22 -39 -56 -49 -73 -11 -18 -23 -33 -27 -33 -4
0 -8 -4 -8 -10 0 -5 -31 -56 -68 -112 -38 -57 -79 -121 -92 -143 -13 -22 -28
-41 -32 -43 -4 -2 -8 -10 -8 -18 0 -8 -4 -14 -10 -14 -5 0 -9 -3 -8 -7 3 -8
-14 -37 -62 -108 -15 -22 -40 -64 -56 -92 -16 -29 -32 -53 -36 -53 -5 0 -8 -4
-8 -10 0 -5 -29 -58 -65 -116 -36 -59 -65 -108 -65 -109 0 -2 -28 -50 -63
-107 -34 -56 -70 -119 -80 -138 -10 -19 -33 -60 -52 -90 -19 -30 -34 -61 -35
-67 0 -7 -4 -13 -9 -13 -5 0 -14 -15 -21 -32 -8 -18 -19 -40 -25 -48 -7 -8
-27 -44 -46 -80 -19 -36 -36 -67 -39 -70 -3 -3 -13 -21 -23 -40 -10 -19 -26
-48 -35 -65 -39 -69 -104 -187 -145 -266 -59 -112 -87 -161 -99 -176 -6 -7 -7
-13 -3 -13 4 0 3 -6 -3 -12 -11 -14 -98 -178 -145 -273 -16 -33 -36 -68 -45
-77 -8 -10 -12 -18 -9 -18 3 0 -36 -84 -88 -187 -103 -208 -215 -441 -215
-447 0 -2 -24 -55 -54 -117 -30 -63 -68 -148 -86 -189 -18 -41 -43 -99 -56
-128 -13 -28 -24 -54 -23 -57 0 -3 -9 -22 -20 -43 -21 -40 -99 -225 -163 -386
-22 -56 -43 -105 -46 -111 -4 -5 -8 -19 -9 -29 -2 -11 -7 -24 -12 -30 -5 -6
-12 -22 -16 -36 -4 -14 -13 -38 -20 -55 -7 -16 -18 -43 -24 -60 -6 -16 -16
-43 -22 -60 -7 -16 -13 -35 -14 -40 -2 -6 -14 -40 -29 -76 -14 -36 -26 -68
-26 -72 0 -3 -5 -18 -11 -34 -6 -15 -10 -29 -10 -31 1 -1 -6 -16 -14 -32 -9
-17 -13 -30 -10 -30 3 0 0 -10 -7 -22 -6 -13 -13 -27 -14 -33 -1 -5 -18 -59
-39 -120 -20 -60 -39 -117 -40 -125 -2 -8 -4 -16 -5 -17 -2 -2 -4 -7 -5 -13
-1 -5 -3 -11 -5 -12 -1 -2 -3 -11 -5 -21 -2 -10 -7 -26 -11 -35 -4 -9 -8 -21
-9 -27 -2 -5 -11 -37 -21 -70 -10 -33 -19 -62 -19 -65 -1 -3 -4 -12 -8 -20 -3
-8 -9 -28 -13 -45 -10 -40 -11 -44 -14 -50 -1 -3 -3 -13 -4 -22 -1 -10 -10
-45 -20 -78 -10 -33 -20 -68 -22 -78 -2 -10 -6 -27 -9 -37 -3 -10 -8 -29 -11
-42 -8 -36 -13 -61 -19 -88 -6 -25 -11 -51 -19 -92 -3 -13 -10 -48 -16 -78 -6
-30 -13 -68 -15 -85 -3 -16 -7 -41 -9 -55 -6 -29 -13 -80 -23 -165 -13 -119
-7 -389 10 -460 9 -33 42 -120 48 -125 3 -3 12 -20 20 -37 8 -18 17 -33 21
-33 5 0 8 -5 8 -11 0 -36 131 -180 215 -236 98 -65 171 -78 234 -42 77 43 95
125 78 344 -2 22 1 48 5 58 6 11 5 17 -2 17 -6 0 -9 3 -6 8 2 4 7 37 10 72 10
107 15 151 31 245 20 115 24 135 30 165 5 21 21 96 41 190 3 14 10 43 16 65 6
22 12 45 14 50 1 6 7 30 14 55 6 25 13 52 14 60 2 8 6 22 8 30 7 19 29 98 33
119 7 36 99 325 143 451 26 74 47 137 47 140 1 3 9 23 19 45 9 22 20 52 23 68
3 15 9 27 13 27 3 0 7 6 7 13 0 15 177 457 204 510 10 21 19 44 19 52 0 7 7
21 16 29 8 9 13 16 10 16 -7 0 66 171 146 340 17 36 31 71 31 78 0 6 4 12 8
12 4 0 10 14 14 30 4 16 11 30 16 30 5 0 9 5 9 11 0 14 52 129 173 379 23 47
41 88 39 93 -1 4 3 7 8 7 6 0 10 4 10 10 0 9 190 397 255 520 16 30 30 57 30
60 4 14 19 46 24 50 12 10 31 50 31 64 0 8 3 16 8 18 4 2 27 41 51 88 140 271
244 465 254 471 5 3 8 9 7 13 -1 7 77 154 121 229 16 26 29 49 29 52 0 2 13
26 29 53 27 45 69 121 110 197 9 17 18 32 21 35 6 6 50 86 65 117 5 13 13 23
18 23 4 0 7 4 7 9 0 13 73 135 82 139 5 2 8 8 8 14 0 6 41 78 92 162 50 83 96
161 102 173 6 13 14 23 19 23 4 0 7 5 7 12 0 6 11 26 25 44 14 18 25 35 25 38
0 3 21 38 47 78 110 173 140 218 202 313 36 55 68 102 71 105 3 3 23 32 45 65
22 33 46 66 53 73 6 7 12 17 12 21 0 4 9 19 20 32 51 61 110 147 110 159 0 6
5 10 10 10 6 0 10 6 10 14 0 8 4 16 8 18 16 6 144 238 141 255 -3 25 -90 77
-142 87 -14 2 -34 9 -44 14 -10 5 -36 13 -58 17 -22 5 -47 10 -55 11 -85 18
-127 22 -200 22 -47 -1 -92 -4 -100 -8z"/>
<path d="M9980 12319 c0 -3 -6 -6 -12 -7 -30 -2 -66 -13 -118 -38 -52 -26
-162 -95 -186 -118 -6 -6 -29 -24 -50 -41 -62 -48 -220 -205 -272 -270 -43
-53 -114 -154 -149 -211 -22 -35 -131 -259 -138 -284 -4 -14 -19 -49 -32 -79
-25 -55 -34 -83 -36 -113 -1 -10 -4 -18 -7 -18 -6 0 -21 -70 -36 -160 -11 -74
-6 -287 12 -420 2 -19 6 -55 9 -80 2 -25 5 -45 5 -45 2 0 7 -29 14 -90 3 -22
8 -56 12 -75 3 -19 8 -46 10 -60 2 -14 6 -34 9 -46 2 -11 7 -43 10 -70 3 -27
10 -65 15 -84 4 -19 11 -57 15 -83 3 -27 9 -59 12 -70 3 -12 5 -32 6 -44 1
-13 4 -23 7 -23 3 0 6 -10 7 -22 1 -31 6 -60 47 -283 37 -201 44 -245 52 -310
3 -22 7 -51 10 -65 29 -141 34 -422 11 -530 -13 -61 -20 -86 -25 -95 -4 -5 -7
-14 -8 -20 -10 -63 -229 -315 -274 -315 -6 0 -10 -4 -10 -9 0 -8 -104 -51
-140 -58 -96 -19 -195 0 -271 53 -44 30 -129 133 -129 157 0 7 -3 17 -7 21 -4
3 -8 12 -10 19 -1 7 -9 35 -17 62 -13 49 -15 230 -2 283 3 12 9 32 12 45 3 12
8 34 11 50 3 15 9 27 14 27 5 0 8 3 7 8 -4 12 42 102 96 187 52 83 60 94 86
123 9 9 33 40 55 67 72 92 196 217 266 269 29 22 49 61 49 98 0 69 -113 158
-268 212 -77 27 -82 28 -182 29 -156 0 -265 -89 -456 -374 -133 -199 -185
-273 -196 -277 -5 -2 -8 -10 -8 -18 0 -8 -4 -14 -10 -14 -5 0 -10 -7 -10 -15
0 -8 -4 -15 -10 -15 -5 0 -10 -4 -10 -10 0 -5 -9 -20 -19 -32 -11 -13 -64 -84
-120 -158 -55 -74 -109 -146 -120 -160 -141 -183 -277 -357 -285 -367 -16 -18
-32 -37 -89 -106 -28 -34 -58 -69 -67 -77 -8 -9 -39 -42 -68 -73 -29 -31 -55
-57 -57 -57 -2 0 -17 -12 -32 -26 -69 -65 -127 -82 -142 -41 -11 27 -7 61 14
142 9 33 18 69 20 80 3 12 14 48 26 80 19 56 23 69 33 113 10 41 139 428 146
437 5 6 8 12 8 15 0 11 15 66 21 75 3 6 6 15 7 20 5 28 126 350 135 361 6 8 9
14 5 14 -3 0 3 24 15 53 22 56 34 85 93 220 14 32 26 60 26 63 0 3 6 20 14 37
24 56 38 96 35 100 -2 2 1 10 7 18 10 12 21 45 29 85 11 48 -119 64 -280 34
-33 -6 -67 -12 -75 -13 -8 -2 -19 -5 -25 -9 -5 -3 -26 -9 -45 -13 -19 -4 -41
-12 -47 -17 -7 -6 -13 -8 -13 -4 0 11 -53 -26 -83 -57 -16 -17 -47 -55 -70
-86 -22 -31 -43 -58 -46 -61 -3 -3 -10 -12 -16 -21 -11 -19 -218 -330 -244
-369 -10 -14 -20 -32 -24 -40 -4 -8 -16 -28 -27 -45 -11 -16 -23 -37 -27 -45
-3 -8 -9 -17 -13 -20 -3 -3 -26 -36 -49 -75 -24 -38 -48 -71 -53 -73 -4 -2 -8
-8 -8 -14 0 -9 -96 -156 -110 -168 -4 -3 -30 -41 -60 -85 -30 -44 -65 -91 -77
-104 -13 -13 -23 -27 -23 -31 0 -6 -73 -103 -112 -150 -7 -8 -31 -37 -52 -65
-22 -27 -45 -55 -51 -61 -5 -6 -28 -33 -50 -59 -22 -27 -61 -71 -87 -98 -27
-28 -48 -54 -48 -58 0 -4 -4 -9 -9 -11 -5 -1 -29 -21 -53 -43 -79 -74 -139
-114 -206 -136 -174 -58 -245 -18 -269 151 -7 53 -11 324 -4 335 3 5 6 21 7
35 1 14 5 39 8 55 4 17 9 46 12 65 3 19 10 40 15 46 5 6 6 13 3 17 -6 6 30
132 81 277 37 106 80 207 149 353 25 53 45 100 45 103 0 4 4 10 9 13 5 3 21
29 36 56 38 74 74 134 141 238 52 81 169 243 184 257 3 3 24 27 46 55 65 81
215 229 293 289 39 31 72 52 72 48 0 -4 4 -2 8 4 12 17 102 74 118 74 7 0 14
4 14 9 0 5 8 11 18 14 9 3 44 17 78 31 74 31 119 40 201 40 107 0 180 -33 336
-151 96 -71 177 -119 221 -130 46 -11 102 -9 128 3 56 29 122 156 95 183 -7 7
-8 11 0 11 10 0 10 9 -2 80 -19 110 -82 252 -150 339 -80 102 -239 207 -375
247 -85 25 -219 34 -300 21 -21 -3 -102 -18 -120 -22 -63 -13 -291 -116 -378
-171 -29 -19 -55 -34 -58 -34 -3 0 -20 -11 -38 -25 -18 -14 -38 -25 -44 -25
-7 0 -12 -4 -12 -8 0 -4 -12 -15 -27 -24 -16 -9 -39 -25 -51 -35 -70 -54 -141
-111 -172 -138 -43 -37 -294 -288 -335 -335 -32 -37 -162 -197 -195 -240 -54
-70 -150 -202 -150 -206 0 -8 -95 -149 -102 -152 -5 -2 -8 -7 -8 -12 0 -4 -29
-58 -65 -119 -35 -61 -65 -113 -65 -116 0 -7 -54 -119 -60 -125 -3 -3 -6 -12
-8 -20 -2 -8 -10 -28 -17 -45 -24 -51 -73 -185 -69 -185 3 0 0 -9 -6 -21 -6
-11 -13 -28 -15 -37 -2 -9 -11 -42 -20 -72 -9 -30 -18 -62 -20 -70 -2 -8 -4
-15 -5 -15 -1 0 -4 -11 -6 -25 -2 -14 -11 -50 -19 -80 -14 -54 -25 -100 -31
-130 -2 -8 -6 -33 -9 -55 -3 -22 -7 -47 -10 -55 -2 -8 -7 -40 -10 -70 -3 -30
-8 -75 -12 -100 -8 -58 -8 -320 0 -385 8 -67 26 -150 44 -205 21 -64 65 -163
80 -178 7 -8 18 -22 23 -32 18 -33 94 -111 150 -155 56 -43 144 -95 160 -95 5
0 21 -5 37 -12 35 -14 46 -16 108 -24 71 -9 136 -10 141 -3 2 4 17 5 34 4 17
-1 33 1 36 6 3 5 9 7 14 4 12 -7 145 39 229 80 81 40 200 117 276 179 27 23
58 48 69 56 11 8 106 102 213 209 106 107 195 192 197 190 3 -3 8 -24 11 -48
3 -24 8 -48 12 -54 3 -6 1 -7 -5 -3 -9 5 -9 1 -3 -16 5 -13 11 -46 15 -74 12
-105 59 -199 132 -263 152 -134 438 -114 713 51 34 21 67 38 72 38 5 0 9 5 9
10 0 6 6 10 14 10 8 0 16 3 18 8 2 4 30 27 63 51 55 40 372 351 358 351 -3 0
11 14 32 30 54 43 73 39 125 -28 80 -102 204 -232 220 -232 5 0 13 -6 17 -12
33 -53 284 -173 403 -195 14 -2 42 -8 63 -13 46 -10 306 -10 327 0 8 5 31 10
50 13 28 4 79 16 130 32 86 27 287 126 302 149 4 6 8 7 8 3 0 -7 72 44 144
103 29 23 145 142 167 170 72 94 98 135 146 228 29 57 53 112 53 121 0 9 5 22
12 29 7 7 9 12 5 12 -3 0 -2 12 4 28 6 15 13 36 15 47 2 11 6 31 9 45 20 90
24 145 21 310 -3 102 -7 196 -9 210 -3 14 -8 50 -11 80 -3 30 -8 69 -10 85 -3
17 -7 54 -11 84 -3 30 -8 64 -10 75 -2 12 -7 41 -10 66 -3 25 -8 61 -11 80 -2
19 -9 61 -15 93 -6 33 -12 73 -14 90 -2 18 -6 43 -9 57 -3 14 -8 48 -11 77 -4
29 -10 66 -15 83 -5 17 -7 39 -5 50 2 11 0 22 -5 25 -4 3 -7 21 -6 40 1 19 -1
35 -4 35 -3 0 -6 8 -6 18 -1 22 -17 140 -28 202 -2 14 -7 46 -10 71 -4 25 -9
57 -11 70 -7 44 -18 123 -21 164 -1 22 -3 40 -4 40 -1 0 -3 14 -3 30 -1 17 -5
35 -10 42 -4 6 -3 14 2 18 6 3 7 15 2 28 -13 37 -5 198 13 261 17 58 46 119
103 216 14 25 29 47 33 50 3 3 26 32 50 64 97 133 219 262 361 382 14 11 54
38 89 60 66 40 169 134 171 157 6 66 -6 137 -22 137 -5 0 -9 6 -9 13 0 15
-106 123 -160 163 -49 36 -111 64 -148 67 -18 1 -32 5 -32 8 0 3 -20 5 -45 5
-25 -1 -45 -4 -45 -7z"/>
</g>
</svg>
